<?xml version="1.0" encoding="UTF-8" standalone="no"?>
<!-- Created with Inkscape (http://www.inkscape.org/) -->

<svg
   version="1.1"
   id="svg1"
   width="666.66669"
   height="666.66669"
   viewBox="0 0 666.66669 666.66669"
   sodipodi:docname="Logo-Green.svg"
   inkscape:version="1.4 (86a8ad7, 2024-10-11)"
   xmlns:inkscape="http://www.inkscape.org/namespaces/inkscape"
   xmlns:sodipodi="http://sodipodi.sourceforge.net/DTD/sodipodi-0.dtd"
   xmlns="http://www.w3.org/2000/svg"
   xmlns:svg="http://www.w3.org/2000/svg">
  <defs
     id="defs1" />
  <sodipodi:namedview
     id="namedview1"
     pagecolor="#ffffff"
     bordercolor="#000000"
     borderopacity="0.25"
     inkscape:showpageshadow="2"
     inkscape:pageopacity="0.0"
     inkscape:pagecheckerboard="0"
     inkscape:deskcolor="#d1d1d1"
     inkscape:zoom="0.5"
     inkscape:cx="-186"
     inkscape:cy="445"
     inkscape:window-width="1920"
     inkscape:window-height="991"
     inkscape:window-x="-9"
     inkscape:window-y="-9"
     inkscape:window-maximized="1"
     inkscape:current-layer="g1" />
  <g
     inkscape:groupmode="layer"
     inkscape:label="Image"
     id="g1">
    <path
       style="fill:#1a2d43;fill-opacity:1;stroke:none"
       d="m -377.65844,499.42009 0.40988,-7.08282 8.22722,-2.31386 c 17.54647,-4.93483 37.76378,-19.12635 51.38433,-36.06917 10.23105,-12.72657 20.0361,-32.97908 24.50969,-50.62524 3.23692,-12.76808 3.57502,-16.71349 4.18952,-48.88894 l 0.66844,-35 h -23.4896 -23.4896 v 53.96767 53.96766 l -4.75234,4.32454 c -12.33016,11.22019 -28.23548,19.93944 -47.25281,25.90386 -9.54506,2.99363 -14.4763,3.64723 -31.32818,4.15232 -18.16354,0.5444 -21.46918,0.26914 -36,-2.99769 -16.54086,-3.71873 -26.85149,-7.15588 -39.70132,-13.23482 -5.91119,-2.79644 -7.73747,-4.41952 -8.78436,-7.80698 -1.43055,-4.62882 -5.16893,-36.63224 -5.79503,-49.60989 l -0.38596,-8 9.3579,-0.38552 9.35791,-0.38551 2.42052,9.3962 c 6.62136,25.70343 24.40284,45.10823 47.86491,52.23461 7.97075,2.42104 11.47137,2.72556 24.16005,2.10168 21.07117,-1.03604 33.94373,-6.48669 40.11051,-16.98407 2.66677,-4.53948 2.73669,-6.70821 3.1053,-96.31073 l 0.3771,-91.66667 h 18.59348 18.59348 l 0.36276,25 0.36275,25.00001 h 22.66667 22.66666 l 0.34556,-67.67573 0.34556,-67.67573 92.98778,0.34239 92.98778,0.34239 0.67903,21.33334 c 0.75766,23.80329 0.42848,28.66667 -1.94031,28.66667 -0.8939,0 -3.07859,-2.24581 -4.85485,-4.99068 -2.33337,-3.60577 -5.26285,-5.81655 -10.55672,-7.96683 -7.21523,-2.93069 -8.16224,-2.97157 -61.99382,-2.67599 l -54.66667,0.30016 -0.34937,50.33334 -0.34936,50.33333 h 42.6827 42.6827 l 0.12847,4.33334 c 0.0707,2.38333 0.3885,9.43333 0.70631,15.66666 0.93275,18.29409 -0.73764,20.45262 -11.0919,14.33334 -4.85962,-2.872 -6.56339,-3.01763 -39.93076,-3.41301 l -34.85455,-0.413 -0.82268,22.413 c -1.55763,42.43606 -5.74917,63.99046 -17.30933,89.01093 -12.63811,27.35353 -34.16458,48.90306 -61.43864,61.50445 -12.4168,5.73692 -37.28767,12.21564 -51.41782,13.39404 l -10.78887,0.89976 z m 55.89677,-122.6467 0.11272,-32.66666 2.67044,8 c 3.81662,11.43366 4.65941,31.04199 1.86978,43.50253 -4.08005,18.22451 -4.77117,15.42677 -4.65294,-18.83587 z m -70.15356,-28.73127 c -2.2,-1.69139 -18.1,-11.39412 -35.33333,-21.56164 -17.23333,-10.16751 -35.85622,-21.54355 -41.3842,-25.28009 -26.41935,-17.85771 -39.09642,-42.31184 -36.84502,-71.07424 3.95522,-50.52941 54.65593,-82.79496 119.58286,-76.10166 9.1555,0.94384 23.54636,2.00479 31.9797,2.35768 8.43333,0.35288 15.73957,1.03526 16.23609,1.51641 0.70705,0.68516 1.76277,51.28142 1.2215,58.54148 -0.0883,1.18409 -3.21275,1.66666 -10.79093,1.66666 -10.29887,0 -10.66666,-0.10774 -10.66666,-3.1246 0,-3.78657 -4.0029,-15.70708 -7.72319,-22.99947 -3.22977,-6.33086 -12.64892,-15.33285 -19.81093,-18.93353 -17.3783,-8.73687 -41.60945,-6.56009 -56.30792,5.05838 -14.31574,11.31594 -20.62838,31.44113 -15.68317,49.99922 4.87714,18.3027 15.33849,28.55696 49.48862,48.50898 10.24654,5.98649 19.10787,11.36231 19.69183,11.94627 0.58397,0.58397 0.90043,14.89783 0.70326,31.80858 l -0.35851,30.74682 z"
       id="path2-1" />
    <path
       style="fill:#3d6856;fill-opacity:1;stroke:none"
       d="m 255.34156,511.42009 0.40988,-7.08282 8.22722,-2.31386 c 17.54647,-4.93483 37.76378,-19.12635 51.38433,-36.06917 10.23105,-12.72657 20.0361,-32.97908 24.50969,-50.62524 3.23692,-12.76808 3.57502,-16.71349 4.18952,-48.88894 l 0.66844,-35 h -23.4896 -23.4896 v 53.96767 53.96766 l -4.75234,4.32454 c -12.33016,11.22019 -28.23548,19.93944 -47.25281,25.90386 -9.54506,2.99363 -14.4763,3.64723 -31.32818,4.15232 -18.16354,0.5444 -21.46918,0.26914 -36,-2.99769 -16.54086,-3.71873 -26.85149,-7.15588 -39.70132,-13.23482 -5.91119,-2.79644 -7.73747,-4.41952 -8.78436,-7.80698 -1.43055,-4.62882 -5.16893,-36.63224 -5.79503,-49.60989 l -0.38596,-8 9.3579,-0.38552 9.35791,-0.38551 2.42052,9.3962 c 6.62136,25.70343 24.40284,45.10823 47.86491,52.23461 7.97075,2.42104 11.47137,2.72556 24.16005,2.10168 21.07117,-1.03604 33.94373,-6.48669 40.11051,-16.98407 2.66677,-4.53948 2.73669,-6.70821 3.1053,-96.31073 l 0.3771,-91.66667 h 18.59348 18.59348 l 0.36276,25 0.36275,25.00001 h 22.66667 22.66666 l 0.34556,-67.67573 0.34556,-67.67573 92.98778,0.34239 92.98778,0.34239 0.67903,21.33334 c 0.75766,23.80329 0.42848,28.66667 -1.94031,28.66667 -0.8939,0 -3.07859,-2.24581 -4.85485,-4.99068 -2.33337,-3.60577 -5.26285,-5.81655 -10.55672,-7.96683 -7.21523,-2.93069 -8.16224,-2.97157 -61.99382,-2.67599 l -54.66667,0.30016 -0.34937,50.33334 -0.34936,50.33333 h 42.6827 42.6827 l 0.12847,4.33334 c 0.0707,2.38333 0.3885,9.43333 0.70631,15.66666 0.93275,18.29409 -0.73764,20.45262 -11.0919,14.33334 -4.85962,-2.872 -6.56339,-3.01763 -39.93076,-3.41301 l -34.85455,-0.413 -0.82268,22.413 c -1.55763,42.43606 -5.74917,63.99046 -17.30933,89.01093 -12.63811,27.35353 -34.16458,48.90306 -61.43864,61.50445 -12.4168,5.73692 -37.28767,12.21564 -51.41782,13.39404 l -10.78887,0.89976 z m 55.89677,-122.6467 0.11272,-32.66666 2.67044,8 c 3.81662,11.43366 4.65941,31.04199 1.86978,43.50253 -4.08005,18.22451 -4.77117,15.42677 -4.65294,-18.83587 z m -70.15356,-28.73127 c -2.2,-1.69139 -18.1,-11.39412 -35.33333,-21.56164 -17.23333,-10.16751 -35.85622,-21.54355 -41.3842,-25.28009 -26.41935,-17.85771 -39.09642,-42.31184 -36.84502,-71.07424 3.95522,-50.52941 54.65593,-82.79496 119.58286,-76.10166 9.1555,0.94384 23.54636,2.00479 31.9797,2.35768 8.43333,0.35288 15.73957,1.03526 16.23609,1.51641 0.70705,0.68516 1.76277,51.28142 1.2215,58.54148 -0.0883,1.18409 -3.21275,1.66666 -10.79093,1.66666 -10.29887,0 -10.66666,-0.10774 -10.66666,-3.1246 0,-3.78657 -4.0029,-15.70708 -7.72319,-22.99947 -3.22977,-6.33086 -12.64892,-15.33285 -19.81093,-18.93353 -17.3783,-8.73687 -41.60945,-6.56009 -56.30792,5.05838 -14.31574,11.31594 -20.62838,31.44113 -15.68317,49.99922 4.87714,18.3027 15.33849,28.55696 49.48862,48.50898 10.24654,5.98649 19.10787,11.36231 19.69183,11.94627 0.58397,0.58397 0.90043,14.89783 0.70326,31.80858 l -0.35851,30.74682 z"
       id="path1" />
  </g>
</svg>
